<?xml version="1.0" encoding="utf-8"?>
<!-- Generator: Adobe Illustrator 27.4.1, SVG Export Plug-In . SVG Version: 6.00 Build 0)  -->
<svg version="1.1" id="Layer_1" xmlns="http://www.w3.org/2000/svg" xmlns:xlink="http://www.w3.org/1999/xlink" x="0px" y="0px"
	 viewBox="0 0 1728 864" style="enable-background:new 0 0 1728 864;" xml:space="preserve">
<style type="text/css">
	.st0{fill:none;stroke:#000000;stroke-miterlimit:10;}
</style>
<line class="st0" x1="68.59" y1="504.36" x2="1155.41" y2="504.04"/>
<line class="st0" x1="9" y1="684" x2="1251" y2="684.1"/>
<circle class="st0" cx="18" cy="723.6" r="6.75"/>
<circle class="st0" cx="18" cy="644.4" r="6.75"/>
<circle class="st0" cx="1242" cy="644.4" r="6.75"/>
<circle class="st0" cx="1242" cy="723.6" r="6.75"/>
<path class="st0" d="M0,558"/>
<path class="st0" d="M0,684"/>
<line class="st0" x1="15.38" y1="542.62" x2="39.76" y2="518.24"/>
<line class="st0" x1="1260.01" y1="692.9" x2="1259.67" y2="769.69"/>
<circle class="st0" cx="18" cy="759.6" r="6.75"/>
<circle class="st0" cx="1242" cy="759.6" r="6.75"/>
<circle class="st0" cx="18" cy="608.4" r="6.75"/>
<circle class="st0" cx="1242" cy="608.4" r="6.75"/>
<circle class="st0" cx="630" cy="759.6" r="6.75"/>
<circle class="st0" cx="630" cy="608.4" r="6.75"/>
<path class="st0" d="M9,684c-4.97,0-9-4.03-9-9"/>
<path class="st0" d="M0,693c0-4.97,4.03-9,9-9"/>
<path class="st0" d="M1260,675.1c0,4.97-4.03,9-9,9"/>
<path class="st0" d="M1251,683.9c4.97,0,9,4.03,9,9"/>
<line class="st0" x1="1260" y1="598.35" x2="1260" y2="674.97"/>
<path class="st0" d="M64.88,600.62"/>
<path class="st0" d="M55.88,591.62"/>
<path class="st0" d="M39.76,518.04c9.56-9.43,22.08-13.19,28.83-13.68"/>
<path class="st0" d="M0,562.67c0-4.97,11.86-16.53,15.38-20.05"/>
<path class="st0" d="M-0.21,810.68"/>
<line class="st0" x1="15.17" y1="790.06" x2="75.55" y2="850.64"/>
<path class="st0" d="M75.55,850.64c9.56,9.43,22.08,13.19,28.83,13.68"/>
<path class="st0" d="M-0.21,770.02c0,4.97,11.86,16.53,15.38,20.05"/>
<path class="st0" d="M1259.67,810.36"/>
<line class="st0" x1="1244.29" y1="789.73" x2="1183.91" y2="850.32"/>
<path class="st0" d="M1183.91,850.32c-9.56,9.43-22.08,13.19-28.83,13.68"/>
<path class="st0" d="M1259.67,769.69c0,4.97-11.86,16.53-15.38,20.05"/>
<path class="st0" d="M1260,557.68"/>
<line class="st0" x1="1244.62" y1="578.3" x2="1184.24" y2="517.72"/>
<path class="st0" d="M1184.24,517.72c-9.56-9.43-22.08-13.19-28.83-13.68"/>
<path class="st0" d="M1260,598.35c0-4.97-11.86-16.53-15.38-20.05"/>
<line class="st0" x1="104.38" y1="864.31" x2="1155.08" y2="864.01"/>
<line class="st0" x1="-0.21" y1="770.02" x2="0" y2="693"/>
<line class="st0" x1="0" y1="562.67" x2="0" y2="675"/>
</svg>
