<svg id="Layer_1" data-name="Layer 1" xmlns="http://www.w3.org/2000/svg" viewBox="0 0 1311.12 865.32"><defs><style>.cls-1,.cls-2{fill:none;stroke:#000;stroke-miterlimit:10;}.cls-1{stroke-width:0.03px;}</style></defs><line class="cls-1" x1="9.71" y1="504.5" x2="439.91" y2="504.5"/><line class="cls-1" x1="9.71" y1="684.5" x2="1251.71" y2="684.6"/><line class="cls-1" x1="439.91" y1="495.5" x2="439.91" y2="9.5"/><circle class="cls-1" cx="18.71" cy="18.5" r="6.75"/><circle class="cls-1" cx="18.71" cy="486.5" r="6.75"/><circle class="cls-1" cx="198.71" cy="18.5" r="6.75"/><circle class="cls-1" cx="234.71" cy="18.5" r="6.75"/><circle class="cls-1" cx="198.71" cy="486.5" r="6.75"/><circle class="cls-1" cx="234.71" cy="486.5" r="6.75"/><line class="cls-1" x1="439.91" y1="504.5" x2="943.91" y2="504.5"/><line class="cls-1" x1="943.91" y1="495.5" x2="943.91" y2="275"/><line class="cls-1" x1="943.91" y1="9.5" x2="943.91" y2="230"/><path class="cls-1" d="M1033.91,234.5a18,18,0,0,1,0,36"/><line class="cls-1" x1="1033.91" y1="234.5" x2="948.41" y2="234.5"/><line class="cls-1" x1="1033.91" y1="270.5" x2="948.41" y2="270.5"/><circle class="cls-1" cx="1033.91" cy="252.5" r="6.75"/><circle class="cls-1" cx="493.91" cy="54.5" r="6.75"/><circle class="cls-1" cx="529.91" cy="54.5" r="6.75"/><circle class="cls-1" cx="453.23" cy="481.82" r="6.75"/><circle class="cls-1" cx="925.91" cy="486.5" r="6.75"/><circle class="cls-1" cx="889.91" cy="486.5" r="6.75"/><circle class="cls-1" cx="889.91" cy="18.5" r="6.75"/><circle class="cls-1" cx="925.91" cy="54.5" r="6.75"/><circle class="cls-1" cx="18.71" cy="724.1" r="6.75"/><circle class="cls-1" cx="18.71" cy="644.9" r="6.75"/><circle class="cls-1" cx="1242.71" cy="644.9" r="6.75"/><circle class="cls-1" cx="1242.71" cy="724.1" r="6.75"/><line class="cls-1" x1="475.91" y1="234.5" x2="619.91" y2="234.5"/><line class="cls-1" x1="619.91" y1="234.5" x2="619.91" y2="270.5"/><line class="cls-1" x1="475.91" y1="234.5" x2="475.91" y2="270.5"/><line class="cls-1" x1="619.91" y1="270.5" x2="475.91" y2="270.5"/><line class="cls-1" x1="16.09" y1="543.12" x2="40.46" y2="518.74"/><line class="cls-1" x1="943.91" y1="504.5" x2="1192.12" y2="504.54"/><line class="cls-1" x1="1260.71" y1="693.4" x2="1260.38" y2="806.19"/><circle class="cls-1" cx="18.71" cy="796.1" r="6.75"/><circle class="cls-1" cx="1242.71" cy="796.1" r="6.75"/><circle class="cls-1" cx="18.71" cy="572.9" r="6.75"/><circle class="cls-1" cx="1242.71" cy="572.9" r="6.75"/><circle class="cls-1" cx="630.71" cy="760.1" r="6.75"/><circle class="cls-1" cx="630.71" cy="608.9" r="6.75"/><line class="cls-1" x1="979.91" y1="270.5" x2="979.91" y2="306.5"/><line class="cls-1" x1="979.91" y1="342.5" x2="979.91" y2="378.5"/><line class="cls-1" x1="979.91" y1="378.5" x2="979.91" y2="414.5"/><line class="cls-1" x1="979.91" y1="450.5" x2="979.91" y2="486.5"/><line class="cls-1" x1="979.91" y1="234.5" x2="979.91" y2="198.5"/><line class="cls-1" x1="979.91" y1="162.5" x2="979.91" y2="126.5"/><line class="cls-1" x1="979.91" y1="126.5" x2="948.41" y2="126.5"/><line class="cls-1" x1="979.91" y1="378.5" x2="948.41" y2="378.5"/><line class="cls-1" x1="979.91" y1="486.5" x2="948.41" y2="486.5"/><path class="cls-1" d="M1041.11,414.5a18,18,0,0,1,0,36"/><path class="cls-1" d="M1041.11,306.5a18,18,0,0,1,0,36"/><path class="cls-1" d="M1041.11,162.5a18,18,0,0,1,0,36"/><line class="cls-1" x1="979.91" y1="162.5" x2="988.91" y2="162.5"/><line class="cls-1" x1="979.91" y1="198.5" x2="988.91" y2="198.5"/><line class="cls-1" x1="979.91" y1="306.5" x2="988.91" y2="306.5"/><line class="cls-1" x1="979.91" y1="342.5" x2="988.91" y2="342.5"/><line class="cls-1" x1="979.91" y1="414.5" x2="988.91" y2="414.5"/><line class="cls-1" x1="979.91" y1="450.5" x2="988.91" y2="450.5"/><line class="cls-1" x1="988.91" y1="162.5" x2="988.91" y2="133.7"/><line class="cls-1" x1="988.91" y1="306.5" x2="988.91" y2="277.7"/><line class="cls-1" x1="988.91" y1="414.5" x2="988.91" y2="385.7"/><line class="cls-1" x1="988.91" y1="450.5" x2="988.91" y2="479.3"/><line class="cls-1" x1="988.91" y1="342.5" x2="988.91" y2="371.3"/><line class="cls-1" x1="988.91" y1="198.5" x2="988.91" y2="227.3"/><path class="cls-1" d="M988.91,133.7c0,15.92,23.35,28.8,52.2,28.8"/><path class="cls-1" d="M988.91,277.7c0,15.92,23.35,28.8,52.2,28.8"/><path class="cls-1" d="M988.91,385.7c0,15.92,23.35,28.8,52.2,28.8"/><path class="cls-1" d="M988.91,371.3c0-15.92,23.35-28.8,52.2-28.8"/><path class="cls-1" d="M988.91,479.3c0-15.92,23.35-28.8,52.2-28.8"/><path class="cls-1" d="M988.91,227.3c0-15.92,23.35-28.8,52.2-28.8"/><line class="cls-1" x1="1059.11" y1="500" x2="1059.11" y2="149"/><circle class="cls-1" cx="1077.11" cy="486.5" r="6.75"/><circle class="cls-1" cx="1077.11" cy="162.5" r="6.75"/><path class="cls-1" d="M1063.61,504.5c136.8,0,247.5-16.1,247.5-36"/><path class="cls-1" d="M1063.61,144.5c136.8,0,247.5,16.1,247.5,36"/><line class="cls-1" x1="1311.11" y1="180.5" x2="1311.11" y2="468.5"/><circle class="cls-1" cx="1041.11" cy="324.5" r="6.75"/><circle class="cls-1" cx="1041.11" cy="180.5" r="6.75"/><circle class="cls-1" cx="1041.11" cy="432.5" r="6.75"/><circle class="cls-1" cx="961.91" cy="396.5" r="6.75"/><circle class="cls-1" cx="961.91" cy="468.5" r="6.75"/><circle class="cls-1" cx="961.91" cy="288.5" r="6.75"/><circle class="cls-1" cx="961.91" cy="360.5" r="6.75"/><circle class="cls-1" cx="961.91" cy="144.5" r="6.75"/><circle class="cls-1" cx="961.91" cy="216.5" r="6.75"/><path class="cls-1" d="M439.91,495.5a9,9,0,0,1-9,9"/><path class="cls-1" d="M448.91,504.5a9,9,0,0,1-9-9"/><path class="cls-1" d="M9.71,504.5a9,9,0,0,1-9-9"/><path class="cls-1" d="M.71,9.5a9,9,0,0,1,9-9"/><path class="cls-1" d="M430.91.5a9,9,0,0,1,9,9"/><path class="cls-1" d="M439.91,9.5a9,9,0,0,1,9-9"/><path class="cls-1" d="M934.91.5a9,9,0,0,1,9,9"/><path class="cls-1" d="M943.91,495.5a9,9,0,0,1-9,9"/><path class="cls-1" d="M943.91,275a4.49,4.49,0,0,1,4.5-4.5"/><path class="cls-1" d="M948.41,234.5a4.49,4.49,0,0,1-4.5-4.5"/><path class="cls-1" d="M948.41,378.5a4.49,4.49,0,0,1-4.5-4.5"/><path class="cls-1" d="M943.91,383a4.49,4.49,0,0,1,4.5-4.5"/><path class="cls-1" d="M948.41,486.5a4.49,4.49,0,0,1-4.5-4.5"/><path class="cls-1" d="M943.91,131a4.49,4.49,0,0,1,4.5-4.5"/><path class="cls-1" d="M1059.11,149a4.49,4.49,0,0,1,4.5-4.5"/><path class="cls-1" d="M1063.61,504.5a4.49,4.49,0,0,1-4.5-4.5"/><path class="cls-1" d="M9.71,684.5a9,9,0,0,1-9-9"/><path class="cls-1" d="M.71,693.5a9,9,0,0,1,9-9"/><path class="cls-1" d="M1260.71,675.6a9,9,0,0,1-9,9"/><path class="cls-1" d="M1251.71,684.4a9,9,0,0,1,9,9"/><line class="cls-1" x1="1260.71" y1="562.85" x2="1260.71" y2="675.47"/><path class="cls-1" d="M40.46,518.54c9.56-9.43,22.08-13.19,28.84-13.68"/><path class="cls-1" d="M.71,563.17c0-5,11.86-16.53,15.38-20"/><line class="cls-1" x1="15.88" y1="826.56" x2="40.26" y2="850.94"/><path class="cls-1" d="M40.26,851.14c9.55,9.43,22.07,13.19,28.83,13.68"/><path class="cls-1" d="M.5,806.51c0,5,11.86,16.54,15.38,20"/><line class="cls-1" x1="1245" y1="826.24" x2="1220.62" y2="850.61"/><path class="cls-1" d="M1220.62,850.82c-9.56,9.43-22.07,13.18-28.83,13.68"/><path class="cls-1" d="M1260.38,806.19c0,5-11.87,16.53-15.38,20"/><line class="cls-1" x1="1245.33" y1="542.8" x2="1220.95" y2="518.43"/><path class="cls-1" d="M1221,518.22c-9.56-9.43-22.07-13.18-28.83-13.68"/><path class="cls-1" d="M1260.71,562.85c0-5-11.86-16.53-15.38-20.05"/><line class="cls-2" x1="69.09" y1="864.82" x2="1191.79" y2="864.5"/><line class="cls-2" x1="0.5" y1="806.51" x2="0.71" y2="693.5"/><line class="cls-2" x1="0.71" y1="563.17" x2="0.71" y2="675.5"/><line class="cls-2" x1="0.71" y1="9.5" x2="0.71" y2="495.5"/><line class="cls-2" x1="9.71" y1="0.5" x2="430.91" y2="0.5"/><line class="cls-2" x1="934.91" y1="0.5" x2="448.91" y2="0.5"/></svg>